<svg id="Layer_1" data-name="Layer 1" xmlns="http://www.w3.org/2000/svg" viewBox="0 0 22.95 21.26"><defs><style>.cls-1{fill:#109a49;}</style></defs><title>amjanata icon</title><path class="cls-1" d="M8.66,14.68h8.12a.42.42,0,1,1,0,.83h-.42a1.54,1.54,0,0,1,.27,1.51,2,2,0,0,1-.56.75,1.47,1.47,0,0,1-1.8,0c-.63-.49-.71-1.1-.3-2.2l-.17,0h-3A1.48,1.48,0,0,1,11,17.12a2,2,0,0,1-.62.73,1.48,1.48,0,0,1-1.82-.18c-.56-.52-.61-1.18-.15-2.1l-.24,0c-.43,0-.59-.26-.45-.68l.42-1.19c0-.06,0-.13.05-.2-.6-.11-.66-.19-.77-.8-.44-2.48-.9-5-1.35-7.44a.41.41,0,0,0-.29-.35L4,4.2a.54.54,0,0,1-.42-.47A.48.48,0,0,1,4.2,3.2c.82.3,1.63.61,2.43,1A.76.76,0,0,1,7,4.67q.7,3.69,1.36,7.38c0,.28.14.36.43.36h7.35c.19,0,.32,0,.39-.23C17,10.42,17.58,8.69,18.14,7c0,0,0-.08,0-.15l-.92-.06L9.58,6.42a5.35,5.35,0,0,1-.55,0,.48.48,0,0,1-.47-.53.5.5,0,0,1,.57-.47l3.38.14,6.24.28c.56,0,.75.3.58.83-.67,2.1-1.35,4.2-2,6.3-.13.41-.27.51-.72.51-2.38,0-4.76,0-7.14,0a.4.4,0,0,0-.47.34C8.9,14.06,8.78,14.34,8.66,14.68Zm7.17,1.87a.66.66,0,0,0-.67-.66.68.68,0,0,0-.67.67.69.69,0,0,0,.66.68A.71.71,0,0,0,15.83,16.55Zm-5.6,0a.68.68,0,0,0-.65-.68.69.69,0,0,0-.69.65.71.71,0,0,0,.68.7A.68.68,0,0,0,10.23,16.57Z"/></svg>