<svg id="Layer_1" data-name="Layer 1" xmlns="http://www.w3.org/2000/svg" viewBox="0 0 22.95 21.26"><defs><style>.cls-1{fill:#d22328;}</style></defs><title>amjanata icon</title><path class="cls-1" d="M11.49,4.08h8.19a1.64,1.64,0,0,1,1.77,1.77v9.62a1.65,1.65,0,0,1-1.72,1.71H3.28A1.67,1.67,0,0,1,1.5,15.4V5.86A1.65,1.65,0,0,1,3.27,4.08Zm-9.08,5V15.4a.78.78,0,0,0,.88.87H19.63c.63,0,.91-.27.91-.91v-6c0-.08,0-.17,0-.27Zm9.07-2.72h8.75a.6.6,0,0,0,.19,0,.16.16,0,0,0,.11-.1A.9.9,0,0,0,19.59,5H3.13a.73.73,0,0,0-.71.71c0,.1,0,.21,0,.31,0,.33,0,.33.33.33Z"/><path class="cls-1" d="M18.37,13.65a1.6,1.6,0,1,1-1.59-1.6A1.58,1.58,0,0,1,18.37,13.65Z"/><path class="cls-1" d="M6.58,12.37h2.1a.44.44,0,0,1,.48.4.45.45,0,0,1-.5.51H4.49A.48.48,0,0,1,4,13a.45.45,0,0,1,.46-.63Z"/><path class="cls-1" d="M15.54,15.16a1.51,1.51,0,0,1-1.7-.48,1.6,1.6,0,0,1,0-2,1.51,1.51,0,0,1,1.72-.51C14.59,13.36,14.59,14.08,15.54,15.16Z"/><path class="cls-1" d="M5.65,14H6.78c.35,0,.56.17.55.46s-.21.44-.54.45H4.48c-.32,0-.51-.18-.51-.45A.44.44,0,0,1,4.45,14Z"/><path class="cls-1" d="M10.13,11a2.8,2.8,0,0,1-.41,0,.45.45,0,0,1-.38-.46.44.44,0,0,1,.41-.43,4,4,0,0,1,.69,0,.45.45,0,0,1,0,.9h-.31Z"/><path class="cls-1" d="M12.57,11a2.17,2.17,0,0,1-.36,0,.45.45,0,0,1,0-.89h.64a.45.45,0,0,1,0,.9Z"/><path class="cls-1" d="M17.49,10.06h.31a.45.45,0,0,1,.43.43.41.41,0,0,1-.37.45,3.48,3.48,0,0,1-.79,0,.42.42,0,0,1-.36-.44.44.44,0,0,1,.4-.44h.38Z"/><path class="cls-1" d="M5.18,11a2.66,2.66,0,0,1-.39,0,.45.45,0,0,1,0-.88,4.69,4.69,0,0,1,.75,0,.45.45,0,0,1,0,.89C5.45,11,5.32,11,5.18,11Z"/><path class="cls-1" d="M7.63,11a2.16,2.16,0,0,1-.36,0,.45.45,0,0,1,0-.89,3.75,3.75,0,0,1,.67,0,.45.45,0,0,1,.44.45A.44.44,0,0,1,8,11a2.17,2.17,0,0,1-.36,0Z"/><path class="cls-1" d="M15,10.07h.36a.45.45,0,0,1,0,.88,3.48,3.48,0,0,1-.79,0,.4.4,0,0,1-.37-.45.43.43,0,0,1,.4-.43Z"/></svg>