<svg id="Layer_1" data-name="Layer 1" xmlns="http://www.w3.org/2000/svg" viewBox="0 0 22.95 21.26"><defs><style>.cls-1{fill:#109a49;}</style></defs><title>amjanata icon</title><path class="cls-1" d="M6,10.59V3A1.29,1.29,0,0,1,7.47,1.64h8a1.29,1.29,0,0,1,1.47,1.43V16.68c0,.62,0,1.24,0,1.86a1.18,1.18,0,0,1-1.1,1.06l-.34,0H7.57a2,2,0,0,1-.65-.08A1.24,1.24,0,0,1,6,18.25V10.59Zm10.4.05c0-2.05,0-4.1,0-6.15,0-.24,0-.34-.32-.34H6.87c-.35,0-.36,0-.36.35V16.74c0,.35,0,.35.37.35h9.2c.36,0,.36,0,.36-.35Zm-5,6.9H7.19c-.68,0-.68,0-.68.65s.29,1,1,1h8.07a.79.79,0,0,0,.87-.81,4,4,0,0,1,0-.49c0-.24-.06-.32-.32-.32Zm0-13.82h4.37c.61,0,.61,0,.6-.59a1.57,1.57,0,0,0-.07-.57.79.79,0,0,0-.87-.46H9.23c-.63,0-1.25,0-1.88,0a.76.76,0,0,0-.83.82c0,.17,0,.34,0,.51s.08.3.32.3Z"/><path class="cls-1" d="M14.17,10.62A2.7,2.7,0,1,1,11.49,8,2.65,2.65,0,0,1,14.17,10.62ZM11.47,13a2.36,2.36,0,1,0-2.42-2.36A2.38,2.38,0,0,0,11.47,13Z"/><path class="cls-1" d="M11.5,18.13a5,5,0,0,1,.67,0c.1,0,.19.13.28.2-.09.08-.18.21-.27.22q-.7,0-1.41,0c-.09,0-.17-.15-.26-.22.09-.07.18-.19.28-.2A5.58,5.58,0,0,1,11.5,18.13Z"/><path class="cls-1" d="M11.48,3.11H10c-.16,0-.32,0-.31-.22s.16-.22.32-.22H13c.18,0,.33,0,.33.24s-.18.2-.34.2Z"/><path class="cls-1" d="M12,12.29a2.35,2.35,0,0,1-1.8-1,1.87,1.87,0,0,1-.4-1A1.55,1.55,0,0,1,10.32,9a.35.35,0,0,1,.42,0,1.29,1.29,0,0,1,.48.75.43.43,0,0,1-.23.48c-.24.17-.27.28-.08.5a3.12,3.12,0,0,0,.58.5.23.23,0,0,0,.34-.08A.61.61,0,0,1,12,11a.38.38,0,0,1,.44-.08,3.9,3.9,0,0,1,.62.37c.22.17.2.39,0,.58A1.53,1.53,0,0,1,12,12.29ZM11.84,12a1.43,1.43,0,0,0,1-.37c.09-.08.08-.15,0-.21a1.3,1.3,0,0,0-.23-.18c-.33-.2-.41-.19-.65.11a.4.4,0,0,1-.45.16,1.51,1.51,0,0,1-1-.87.41.41,0,0,1,.17-.56.64.64,0,0,0,.15-.13c0-.05.09-.14.07-.18a4.79,4.79,0,0,0-.34-.53c0-.07-.13-.06-.19,0a1.32,1.32,0,0,0-.37.59,1.42,1.42,0,0,0,.28,1.24A2,2,0,0,0,11.84,12Z"/></svg>