<svg id="Layer_1" data-name="Layer 1" xmlns="http://www.w3.org/2000/svg" viewBox="0 0 22.95 21.26"><defs><style>.cls-1{fill:#109a49;}</style></defs><title>amjanata icon</title><path class="cls-1" d="M3.74,15.06a2.2,2.2,0,0,1,1.08-1.34A2.13,2.13,0,0,1,7.88,14.9a.36.36,0,0,0,.41.28H13a.34.34,0,0,0,.38-.27,2,2,0,0,1,1.35-1.35.35.35,0,0,0,.27-.39c0-2.35,0-4.71,0-7.07A1.32,1.32,0,0,0,13.7,4.77c-.37,0-.5-.17-.47-.48s.2-.38.53-.36a2.11,2.11,0,0,1,2.05,2.24c0,.38,0,.77,0,1.18l.42,0c.91,0,1.82,0,2.73,0a2,2,0,0,1,2,2c0,1.78,0,3.56,0,5.35A1.18,1.18,0,0,1,19.87,16c-.7,0-1.4,0-2.09,0a.31.31,0,0,0-.36.25,2.15,2.15,0,0,1-4.06.06c-.08-.26-.21-.31-.45-.31q-2.31,0-4.62,0c-.2,0-.33,0-.41.27A2.1,2.1,0,0,1,5.8,17.76a2.14,2.14,0,0,1-2-1.51A.52.52,0,0,0,3.5,16,2.18,2.18,0,0,1,2,13.83c0-2.56,0-5.13,0-7.7A2.12,2.12,0,0,1,4,3.93c.38,0,.56.13.53.46s-.12.38-.38.38a1.36,1.36,0,0,0-1.35,1.5c0,2.48,0,5,0,7.44A1.23,1.23,0,0,0,3.74,15.06ZM15.9,10.3l-.08.08c0,1,0,1.94,0,2.91,0,.09.13.22.23.26a2.16,2.16,0,0,1,1.37,1.38.42.42,0,0,0,.33.23c.62,0,1.25,0,1.88,0,.36,0,.5-.15.51-.51s0-.95,0-1.42V11.71C18.54,11.77,17,11.73,15.9,10.3Zm4.25.52V9.7a1.35,1.35,0,0,0-1.46-1.48H16.23c-.34,0-.39.06-.3.39a3,3,0,0,0,1.58,1.91A6,6,0,0,0,20.15,10.82Zm-13,4.74a1.26,1.26,0,0,0-1.31-1.24A1.28,1.28,0,0,0,4.55,15.6a1.3,1.3,0,1,0,2.59,0Zm8.24-1.24a1.26,1.26,0,0,0-1.29,1.26,1.31,1.31,0,0,0,1.28,1.33,1.32,1.32,0,0,0,1.31-1.34A1.29,1.29,0,0,0,15.38,14.32Z"/><path class="cls-1" d="M8.46,7.11V3.93a.39.39,0,0,1,.43-.43.39.39,0,0,1,.43.43c0,.72,0,1.44,0,2.16A4.92,4.92,0,0,0,9.4,7.15l.44-.48a.42.42,0,0,1,.62,0,.44.44,0,0,1,0,.65c-.43.43-.86.86-1.3,1.28a.39.39,0,0,1-.59,0c-.43-.4-.84-.82-1.25-1.24a.43.43,0,0,1,0-.65c.21-.22.44-.15.64,0s.29.3.43.46Z"/></svg>