<svg id="Layer_1" data-name="Layer 1" xmlns="http://www.w3.org/2000/svg" viewBox="0 0 22.95 21.26"><defs><style>.cls-1{fill:#109a49;}</style></defs><title>amjanata icon</title><path class="cls-1" d="M14.36,10.44c0-1.35,0-2.7,0-4,0-.75-.13-.88-.86-.88H10.56c-.2,0-.3,0-.3-.27s.12-.26.31-.26c1.08,0,2.16,0,3.24,0a1,1,0,0,1,1.06,1.07c0,.36,0,.71,0,1.07s.08.36.35.36c.8,0,1.6,0,2.39,0a1.21,1.21,0,0,1,1,.42l2.91,3.2a1,1,0,0,1,.28.74v3a1,1,0,0,1-1.07,1.09H20.6c-.28-.05-.39.07-.47.35A2.12,2.12,0,0,1,18,17.76a2.09,2.09,0,0,1-2-1.59c-.06-.2-.14-.28-.36-.28H10.43c-.19,0-.27,0-.32.25a2.15,2.15,0,0,1-4.17,0c-.06-.2-.16-.25-.36-.25-.6,0-1.2,0-1.8,0a1,1,0,0,1-1-1.08c0-.67,0-1.33,0-2,0-.21,0-.3.28-.3s.26.1.26.29c0,.63,0,1.26,0,1.89,0,.46.16.64.61.66s1.18,0,1.77,0c.21,0,.25-.13.29-.28A2.15,2.15,0,0,1,10.08,15a.39.39,0,0,0,.47.34l3.09,0c.57,0,.71-.14.71-.72,0-1,0-2.1,0-3.15Zm6.49.8c-.11-.13-.16-.21-.22-.27-.82-.89-1.64-1.78-2.45-2.68A.72.72,0,0,0,17.6,8H15.29c-.41,0-.41,0-.41.42v6.27c0,.2-.07.48,0,.56s.39,0,.59.06.44-.06.52-.38a2.16,2.16,0,0,1,4.15.11c0,.09.1.23.17.24.47.07.92,0,.92-.68s0-1.63,0-2.44c0-.4,0-.4-.41-.4h-3.2A1,1,0,0,1,16.59,11c-.05-.75,0-1.49,0-2.26h.53V10.6c0,.49.17.66.66.66h2.69Zm-2.8,6a1.61,1.61,0,0,0,0-3.22,1.61,1.61,0,1,0,0,3.22Zm-10,0A1.61,1.61,0,0,0,8,14a1.61,1.61,0,0,0,0,3.22Z"/><path class="cls-1" d="M9.77,7.79A4.25,4.25,0,0,1,5.5,12.1a4.31,4.31,0,1,1,0-8.61A4.28,4.28,0,0,1,9.77,7.79ZM5.49,4A3.77,3.77,0,1,0,9.24,7.83,3.77,3.77,0,0,0,5.49,4Z"/><path class="cls-1" d="M7.51,6.59,5,9.1,3.41,7.51l.37-.35.88.93c.32.33.31.33.64,0L7,6.39C7.18,6.19,7.25,6.22,7.51,6.59Z"/></svg>