<svg id="Layer_1" data-name="Layer 1" xmlns="http://www.w3.org/2000/svg" viewBox="0 0 22.95 21.26"><defs><style>.cls-1{fill:#109a49;}</style></defs><title>amjanata icon</title><path class="cls-1" d="M13.23,15.42c.37.1.74.19,1.09.31a7.23,7.23,0,0,1,.84.41,1.5,1.5,0,0,1,.33.29.94.94,0,0,1,0,1.38,2.89,2.89,0,0,1-1.19.68,8.55,8.55,0,0,1-3.1.42,7.27,7.27,0,0,1-2.87-.56,3.33,3.33,0,0,1-.83-.55.88.88,0,0,1,0-1.36,2.88,2.88,0,0,1,.87-.58,12.57,12.57,0,0,1,1.23-.39l.18,0-.62-.8a26.46,26.46,0,0,1-2.28-3.36,7.64,7.64,0,0,1-1-2.65,5.16,5.16,0,0,1,.69-3.41,5.65,5.65,0,0,1,3.86-2.75A5.77,5.77,0,0,1,16.32,5a5.36,5.36,0,0,1,.85,3.2,6.41,6.41,0,0,1-.33,1.49A12.89,12.89,0,0,1,15,13c-.55.78-1.14,1.54-1.72,2.32Zm-1.75,1.41.08-.09c.88-1.14,1.78-2.26,2.63-3.41A16.35,16.35,0,0,0,16.33,9.7,4.63,4.63,0,0,0,16,5.45a5.1,5.1,0,0,0-4.72-2.6A5.17,5.17,0,0,0,6.56,6.29a4.45,4.45,0,0,0-.08,3,12.26,12.26,0,0,0,1.82,3.4C9.11,13.78,10,14.87,10.8,16,11,16.26,11.25,16.54,11.48,16.83Zm0,1.62A8.11,8.11,0,0,0,14.24,18a2.56,2.56,0,0,0,.91-.54.49.49,0,0,0,0-.76,2,2,0,0,0-.38-.28A5,5,0,0,0,13,15.88a.3.3,0,0,0-.21.1c-.36.45-.71.91-1.06,1.36-.16.21-.31.22-.47,0-.35-.45-.71-.89-1.05-1.35a.25.25,0,0,0-.28-.11c-.47.13-.95.25-1.41.41a1.83,1.83,0,0,0-.63.4.48.48,0,0,0,0,.83,2.91,2.91,0,0,0,.67.42A7.55,7.55,0,0,0,11.49,18.45Z"/><path class="cls-1" d="M11.49,10.35a2.09,2.09,0,0,1-2.09-2,2.08,2.08,0,0,1,4.16-.1A2.08,2.08,0,0,1,11.49,10.35Zm0-.5a1.59,1.59,0,0,0,1.6-1.56,1.6,1.6,0,0,0-3.19,0A1.58,1.58,0,0,0,11.48,9.85Z"/></svg>