<svg id="Layer_1" data-name="Layer 1" xmlns="http://www.w3.org/2000/svg" viewBox="0 0 22.95 21.26"><defs><style>.cls-1{fill:#109a49;}</style></defs><title>amjanata icon</title><path class="cls-1" d="M15.9,9v6.67a.42.42,0,0,1-.14.33c-.67.65-1.33,1.32-2,2a.69.69,0,0,1-.51.2H5.48a.82.82,0,0,1-.9-.9V3.94a.82.82,0,0,1,.9-.9H15a.85.85,0,0,1,.9.91c0,1,0,1.92,0,2.88a.46.46,0,0,1-.11.28,3.78,3.78,0,0,1-.58.54V4c0-.24,0-.24-.24-.24H5.53c-.18,0-.24,0-.24.22q0,6.66,0,13.32c0,.17,0,.23.22.22h7.62a.41.41,0,0,0,.26-.11l1.69-1.67a.4.4,0,0,0,.13-.31c0-1.83,0-3.66,0-5.49a.51.51,0,0,1,.18-.42c.16-.16.31-.33.46-.5Z"/><path class="cls-1" d="M12.41,11l1.23-1.25,4.05-4a.87.87,0,0,1,.23-.16.33.33,0,0,1,.4.14.36.36,0,0,1-.06.45L17.13,7.25l-4.41,4.41-.1.09a.35.35,0,0,1-.55,0L10.72,10c-.16-.21-.16-.41,0-.55a.36.36,0,0,1,.53.1c.34.41.67.83,1,1.24Z"/><path class="cls-1" d="M6,15.69a4.13,4.13,0,0,1,0-.5s.06-.08.1-.1.08,0,.12,0h8.24v.61Z"/><path class="cls-1" d="M6,13.57V13h8.46v.59Z"/><path class="cls-1" d="M9.46,9.2H9.27c-1,0-2,0-3,0-.15,0-.2,0-.19-.19s0-.57,0-.85A1.34,1.34,0,0,1,7.2,7a.24.24,0,0,1,.17.06.55.55,0,0,0,.83,0,.2.2,0,0,1,.24,0,1.35,1.35,0,0,1,1,1.44Zm-.64-.63c0-.32,0-.62-.28-.81a.23.23,0,0,0-.2,0,1.21,1.21,0,0,1-1.11,0,.27.27,0,0,0-.23,0,.74.74,0,0,0-.28.8Z"/><path class="cls-1" d="M8.86,5.78A1.09,1.09,0,1,1,7.77,4.7,1.08,1.08,0,0,1,8.86,5.78Zm-1.08.48a.46.46,0,0,0,.46-.48.47.47,0,0,0-.47-.47.48.48,0,1,0,0,1Z"/><path class="cls-1" d="M14.47,5.92v.6H10.61v-.6Z"/></svg>